<?xml version="1.0" encoding="utf-8"?>
<!-- Generator: Adobe Illustrator 20.1.0, SVG Export Plug-In . SVG Version: 6.00 Build 0)  -->
<svg version="1.1" id="Layer_1" xmlns="http://www.w3.org/2000/svg" xmlns:xlink="http://www.w3.org/1999/xlink" x="0px" y="0px"
	 viewBox="0 0 92 92" style="enable-background:new 0 0 92 92;" xml:space="preserve">
<style type="text/css">
	.st0{fill:#505050;}
</style>
<g>
	<path class="st0" d="M78.2,27.2V16.4H3v48.7c0,5.8,4.7,10.5,10.5,10.5h64.8c5.9,0,10.8-4.8,10.8-10.8V27.2H78.2z M83.6,64.8
		c0,3-2.4,5.4-5.4,5.4H13.5c-2.8,0-5.1-2.3-5.1-5.1V21.8h64.5v8.1v2.7v29.6c0,1.5,1.2,2.7,2.7,2.7c1.5,0,2.7-1.2,2.7-2.7V32.6h5.4
		L83.6,64.8L83.6,64.8z"/>
	<g>
		<rect x="13.8" y="27.2" class="st0" width="53.8" height="5.4"/>
	</g>
	<g>
		<rect x="46" y="59.4" class="st0" width="21.5" height="5.4"/>
	</g>
	<g>
		<rect x="46" y="48.7" class="st0" width="21.5" height="5.4"/>
	</g>
	<g>
		<rect x="46" y="37.9" class="st0" width="21.5" height="5.4"/>
	</g>
	<g>
		<path class="st0" d="M40.6,64.8H13.8v-27h26.9V64.8z M19.1,59.4h16.1V43.2H19.1V59.4z"/>
	</g>
</g>
</svg>
